{"title":"Rockers.1978.DVDRiP.XviD-IPT","uid":12831588,"size":1271794300,"categoryP":"video","categoryS":"movies","magnet":"?xt=urn:btih:29c12ad4815db0b94436303d4d453453cacc9398&amp;dn=Rockers.1978.DVDRiP.XviD-IPT&amp;tr=udp%3A%2F%2Ftracker.leechers-paradise.org%3A6969&amp;tr=udp%3A%2F%2Fzer0day.ch%3A1337&amp;tr=udp%3A%2F%2Fopen.demonii.com%3A1337&amp;tr=udp%3A%2F%2Ftracker.coppersurfer.tk%3A6969&amp;tr=udp%3A%2F%2Fexodus.desync.com%3A6969","seeders":0,"leechers":0,"uploader":"TvTeam","files":4,"time":1448401789,"description":"------------------------------------------------------------------------\r\n\r  https://www.torrenting.com\r\n\r\nSign up is OPEN - for time being. Come and have fun.\r\n\r\n------------------------------------------------------------------------General:\r\n\r\nComplete name                            : Rockers.1978.DVDRiP.XviD-IPT.avi\r\nFormat                                   : AVI\r\nFormat/Info                              : Audio Video Interleave\r\nFormat profile                           : OpenDML\r\nFile size                                : 1.18 GiB\r\nDuration                                 : 1h 39mn\r\nOverall bit rate                         : 1 704 Kbps\r\nMovie name                               : Rockers.1978.DVDRiP.XviD-IPT\r\nWriting application                      : Lavf56.9.100\r\n\r\nVideo:\r\n\r\nID                                       : 0\r\nFormat                                   : MPEG-4 Visual\r\nFormat profile                           : Advanced   \r\nFormat settings, BVOP                    : 2\r\nFormat settings, QPel                    : No\r\nFormat settings, GMC                     : No warppoints\r\nFormat settings, Matrix                  : Default (MPEG)\r\nMuxing mode                              : Packed bitstream\r\nCodec ID                                 : XVID\r\nCodec ID/Hint                            : XviD\r\nDuration                                 : 1h 39mn\r\nBit rate                                 : 1 499 Kbps\r\nWidth                                    : 720 pixels\r\nHeight                                   : 404 pixels\r\nDisplay aspect ratio                     : 16:9\r\nFrame rate                               : 23.976 fps\r\nColor space                              : YUV\r\nChroma subsampling                       : 4:2:0\r\nBit depth                                : 8 bits\r\nScan type                                : Progressive\r\nCompression mode                         : Lossy\r\nBits/(Pixel*Frame)                       : 0.215\r\nStream size                              : 1.04 GiB (88%)\r\nWriting library                          : XviD 64\r\n\r\nAudio:\r\n\r\nID                                       : 1\r\nFormat                                   : AC-3\r\nFormat/Info                              : Audio Coding 3\r\nMode extension                           : CM (complete main)\r\nFormat settings, Endianness              : Big\r\nCodec ID                                 : 2000\r\nDuration                                 : 1h 39mn\r\nBit rate mode                            : Constant\r\nBit rate                                 : 192 Kbps\r\nChannel(s)                               : 2 channels\r\nChannel positions                        : Front: L R\r\nSampling rate                            : 48.0 KHz\r\nCompression mode                         : Lossy\r\nStream size                              : 137 MiB (11%)\r\nAlignment                                : Aligned on interleaves\r\nInterleave, duration                     : 32 ms (0.77 video frame)","torrent":{"xt":"urn:btih:29c12ad4815db0b94436303d4d453453cacc9398","amp;dn":"Rockers.1978.DVDRiP.XviD-IPT","amp;tr":["udp%3A%2F%2Ftracker.leechers-paradise.org%3A6969","udp%3A%2F%2Fzer0day.ch%3A1337","udp%3A%2F%2Fopen.demonii.com%3A1337","udp%3A%2F%2Ftracker.coppersurfer.tk%3A6969","udp%3A%2F%2Fexodus.desync.com%3A6969"],"infoHash":"29c12ad4815db0b94436303d4d453453cacc9398","infoHashBuffer":{"type":"Buffer","data":[41,193,42,212,129,93,176,185,68,54,48,61,77,69,52,83,202,204,147,152]},"announce":[],"urlList":[]}}